# Rhino

mtllib 9157 Sunset Billboard_00-mat01.mtl
usemtl diffuse_Red
v 245.66171264648438 416 202.46604919433594
v 245.66171264648438 172 202.46604919433594
v -294.19427490234375 416 -68.405746459960938
v -294.19427490234375 172 -68.405746459960938
vt 0 0
vt 0 1
vt 1 0
vt 1 1
vn -0.44846323132514954 0 0.89380127191543579
vn -0.44846323132514954 0 0.89380127191543579
vn -0.44846323132514954 0 0.89380127191543579
vn -0.44846323132514954 0 0.89380127191543579
f 4/4/4 2/2/2 1/1/1 3/3/3
